<svg width="512" height="512" viewBox="0 0 512 512" fill="none" xmlns="http://www.w3.org/2000/svg">
<g filter="url(#filter0_f_2054_59)">
<path d="M359.2 437.5C356.6 456.5 337.9 471.4 319.2 466.2C292.7 459 262 447.6 234.4 445.5L192 442.3C185.189 441.821 178.787 438.869 174 434L101 359.2C97.1232 355.216 94.5349 350.157 93.5719 344.682C92.6088 339.207 93.3155 333.568 95.6 328.5C95.6 328.5 140.6 229.9 142.4 224.8C144 219.7 150.2 174.9 153.8 150.9C154.809 144.527 157.989 138.699 162.8 134.4L249 57.2001C251.84 54.6525 255.171 52.7121 258.788 51.4982C262.405 50.2842 266.232 49.8223 270.034 50.1406C273.835 50.459 277.532 51.5511 280.897 53.3497C284.262 55.1483 287.223 57.6156 289.6 60.6001L362.2 152.2C366.262 157.431 368.446 163.877 368.4 170.5C368.4 187.8 369.9 223.5 379.6 246.5C389.225 267.185 401.168 286.711 415.2 304.7C416.899 306.906 417.902 309.569 418.08 312.348C418.258 315.126 417.604 317.895 416.2 320.3C409.9 331 397.3 351.6 379.6 377.9C368.395 395.983 361.389 416.35 359.1 437.5H359.2Z" fill="black" fill-opacity="0.3"/>
</g>
<path d="M359.9 434.3C357.3 453.4 338.6 468.3 319.9 463.2C293.5 455.9 262.9 444.5 235.2 442.4L192.9 439.2C186.073 438.703 179.666 435.713 174.9 430.8L101.9 355.8C97.9856 351.776 95.3761 346.664 94.4127 341.134C93.4493 335.603 94.1768 329.911 96.5 324.8C96.5 324.8 141.6 225.8 143.3 220.6C145 215.5 151.1 170.6 154.7 146.4C155.687 139.991 158.868 134.124 163.7 129.8L249.9 52.2999C252.746 49.7579 256.083 47.8246 259.703 46.6188C263.324 45.413 267.153 44.96 270.955 45.2878C274.758 45.6156 278.453 46.7171 281.814 48.5248C285.175 50.3326 288.131 52.8083 290.5 55.7999L363 147.8C367.049 153.038 369.231 159.479 369.2 166.1C369.2 183.5 370.7 219.3 380.3 242.4C389.918 263.183 401.861 282.808 415.9 300.9C417.636 303.105 418.669 305.781 418.865 308.581C419.061 311.38 418.411 314.174 417 316.6C410.6 327.4 398.1 348 380.3 374.5C369.135 392.667 362.166 413.097 359.9 434.3Z" fill="#6C31E3"/>
<path d="M182.7 436.4C216.6 367.7 215.7 318.4 201.2 283.4C188 251 163.3 230.6 143.9 217.9C143.5 219.8 142.9 221.6 142.1 223.3L96.5 324.8C94.1894 329.92 93.4782 335.619 94.4595 341.15C95.4408 346.681 98.069 351.787 102 355.8L174.9 430.8C177.2 433.1 179.9 435 182.7 436.4Z" fill="url(#paint0_radial_2054_59)"/>
<path d="M274.9 297C284 297.9 292.9 299.9 301.7 303.1C329.5 313.5 354.8 336.9 375.7 382C377.2 379.4 378.7 376.9 380.3 374.5C393.072 355.547 405.311 336.239 417 316.6C418.425 314.184 419.092 311.396 418.914 308.596C418.735 305.797 417.72 303.116 416 300.9C401.926 282.813 389.949 263.187 380.3 242.4C370.7 219.4 369.3 183.5 369.2 166.1C369.2 159.5 367.1 153 363 147.8L290.5 55.8L289.3 54.3C294.6 71.8 294.3 85.8 291 98.5C288 110.3 282.4 121 276.5 132.3C274.5 136.1 272.5 140 270.6 144C261.196 161.961 255.805 181.751 254.8 202C253.8 226.2 258.7 256.5 274.8 297H274.9Z" fill="url(#paint1_radial_2054_59)"/>
<path d="M274.8 297C258.7 256.5 253.8 226.2 254.8 202C255.8 178 262.8 160 270.6 144L276.6 132.3C282.4 121 287.9 110.3 291 98.5C294.682 83.9083 294.092 68.5658 289.3 54.3C284.326 48.8346 277.393 45.5574 270.012 45.1828C262.632 44.8081 255.402 47.3664 249.9 52.3L163.7 129.8C158.868 134.124 155.687 139.991 154.7 146.4L144.2 216C144.2 216.7 144 217.3 143.9 218C163.3 230.6 187.9 251 201.2 283.3C203.8 289.7 206 296.4 207.6 303.7C229.453 297.64 252.176 295.34 274.8 296.9V297Z" fill="url(#paint2_radial_2054_59)"/>
<path d="M320 463.2C338.6 468.3 357.3 453.4 359.9 434.2C362.029 415.988 367.415 398.307 375.8 382C354.8 336.9 329.5 313.5 301.8 303.1C272.3 292.1 240.2 295.8 207.6 303.7C214.9 336.8 210.6 380.1 182.8 436.4C185.9 438 189.4 438.9 192.9 439.2L236.8 442.5C260.6 444.2 296.1 456.5 320 463.2Z" fill="url(#paint3_radial_2054_59)"/>
<path fill-rule="evenodd" clip-rule="evenodd" d="M255 200.5C253.9 224.5 256.9 251.9 273 292.3L268 291.8C253.5 249.7 250.3 228.1 251.4 203.8C252.4 179.5 260.3 160.8 268.1 144.8C270.1 140.8 274.7 133.3 276.7 129.5C282.5 118.2 286.4 112.3 289.7 102C294.5 87.6 293.5 80.8 292.9 74C296.6 98.5 282.5 119.8 271.9 141.5C262.087 159.728 256.29 179.845 254.9 200.5H255Z" fill="url(#paint4_radial_2054_59)"/>
<path fill-rule="evenodd" clip-rule="evenodd" d="M206 285.1C208 289.5 209.7 293.1 210.9 298.6L206.6 299.6C204.9 293.2 203.6 288.6 201.1 283.1C186.5 248.8 163.1 231.1 144.1 218.1C167.1 230.5 190.8 250 206 285.1Z" fill="url(#paint5_radial_2054_59)"/>
<path fill-rule="evenodd" clip-rule="evenodd" d="M211.1 303C219.1 340.5 210.1 388.2 183.6 434.6C205.8 388.6 216.6 344.5 207.6 303.6L211.1 302.9V303Z" fill="url(#paint6_radial_2054_59)"/>
<path fill-rule="evenodd" clip-rule="evenodd" d="M302.7 299.5C346.2 315.8 363 351.5 375.5 381.4C360 350.2 338.5 315.7 301.1 302.9C272.7 293.1 248.7 294.3 207.6 303.6L206.7 299.6C250.3 289.6 273.1 288.4 302.7 299.6V299.5Z" fill="url(#paint7_radial_2054_59)"/>
<defs>
<filter id="filter0_f_2054_59" x="80.153" y="37.043" width="350.956" height="443.204" filterUnits="userSpaceOnUse" color-interpolation-filters="sRGB">
<feFlood flood-opacity="0" result="BackgroundImageFix"/>
<feBlend mode="normal" in="SourceGraphic" in2="BackgroundImageFix" result="shape"/>
<feGaussianBlur stdDeviation="6.5" result="effect1_foregroundBlur_2054_59"/>
</filter>
<radialGradient id="paint0_radial_2054_59" cx="0" cy="0" r="1" gradientTransform="matrix(-48 -185 123 -32 179 429.7)" gradientUnits="userSpaceOnUse">
<stop stop-color="white" stop-opacity="0.4"/>
<stop offset="1" stop-opacity="0.1"/>
</radialGradient>
<radialGradient id="paint1_radial_2054_59" cx="0" cy="0" r="1" gradientTransform="matrix(41 -310 229 30 341.6 351.3)" gradientUnits="userSpaceOnUse">
<stop stop-color="white" stop-opacity="0.6"/>
<stop offset="1" stop-color="white" stop-opacity="0.1"/>
</radialGradient>
<radialGradient id="paint2_radial_2054_59" cx="0" cy="0" r="1" gradientTransform="matrix(57 -261 178 39 190.5 296.3)" gradientUnits="userSpaceOnUse">
<stop stop-color="white" stop-opacity="0.8"/>
<stop offset="1" stop-color="white" stop-opacity="0.4"/>
</radialGradient>
<radialGradient id="paint3_radial_2054_59" cx="0" cy="0" r="1" gradientTransform="matrix(-79 -133 153 -90 321.4 464.2)" gradientUnits="userSpaceOnUse">
<stop stop-color="white" stop-opacity="0.3"/>
<stop offset="1" stop-opacity="0.3"/>
</radialGradient>
<radialGradient id="paint4_radial_2054_59" cx="0" cy="0" r="1" gradientTransform="matrix(-29 136 -92 -20 300.7 149.9)" gradientUnits="userSpaceOnUse">
<stop stop-color="white" stop-opacity="0"/>
<stop offset="1" stop-color="white" stop-opacity="0.2"/>
</radialGradient>
<radialGradient id="paint5_radial_2054_59" cx="0" cy="0" r="1" gradientTransform="matrix(72 73 -155 153 137.8 225.2)" gradientUnits="userSpaceOnUse">
<stop stop-color="white" stop-opacity="0.2"/>
<stop offset="1" stop-color="white" stop-opacity="0.4"/>
</radialGradient>
<radialGradient id="paint6_radial_2054_59" cx="0" cy="0" r="1" gradientTransform="matrix(20 118 -251 43 215.1 273.7)" gradientUnits="userSpaceOnUse">
<stop stop-color="white" stop-opacity="0.1"/>
<stop offset="1" stop-color="white" stop-opacity="0.3"/>
</radialGradient>
<radialGradient id="paint7_radial_2054_59" cx="0" cy="0" r="1" gradientTransform="matrix(-162 -85 268 -510 374.4 371.7)" gradientUnits="userSpaceOnUse">
<stop stop-color="white" stop-opacity="0.2"/>
<stop offset="0.5" stop-color="white" stop-opacity="0.2"/>
<stop offset="1" stop-color="white" stop-opacity="0.3"/>
</radialGradient>
</defs>
</svg>
